<?xml version="1.0" encoding="utf-8"?>
<!-- Generator: Adobe Illustrator 26.0.0, SVG Export Plug-In . SVG Version: 6.00 Build 0)  -->
<svg version="1.1" id="Logo" xmlns="http://www.w3.org/2000/svg" xmlns:xlink="http://www.w3.org/1999/xlink" x="0px" y="0px"
	 viewBox="0 0 131.7 31.7" style="enable-background:new 0 0 131.7 31.7;" xml:space="preserve">
<style type="text/css">
	.st0{fill:#FFFFFF;}
	.st1{fill-rule:evenodd;clip-rule:evenodd;fill:#FFFFFF;}
</style>
<g id="Icon">
	<path class="st0" d="M1.2,9.4C1.2,9.3,1.3,9.1,1.3,9c0.2-0.6,0.5-1,1-1.3C5.3,5.9,8.2,4.2,11,2.5c1-0.6,2.7,0.1,3.1,1
		c0.1,0.2,0.1,0.4,0.1,0.5c0,1.4,0,2.9,0,4.3c0,1-0.4,1.7-1.2,2.2c-2.6,1.6-5.3,3.3-7.9,5c-0.3,0.2-0.5,0.3-0.8,0.5
		c-0.2,0-0.4,0-0.5,0c-0.6-0.2-0.8-0.7-1-1.3c-0.5-1.5-1-3-1.5-4.5C1.2,10,1.2,9.7,1.2,9.4z M4,14.8c0.1,0,0.1-0.1,0.2-0.1
		C7,13,9.7,11.2,12.5,9.5c0.4-0.2,0.5-0.6,0.5-1c0-1.4,0-2.8,0-4.3c0-0.1,0-0.3-0.1-0.3c-0.3-0.4-0.9-0.5-1.4-0.2
		C8.7,5.3,6,6.9,3.2,8.6c-0.8,0.5-0.9,1-0.7,1.8c0.3,0.9,0.6,1.9,0.9,2.8C3.7,13.7,3.8,14.2,4,14.8z"/>
	<path class="st0" d="M28.6,23.2c0,0.1-0.1,0.2-0.1,0.2c-0.2,0.7-0.5,1.2-1.1,1.6c-2.9,1.7-5.8,3.4-8.6,5.1c-1,0.6-2.7-0.1-3.1-1.1
		c-0.1-0.2-0.1-0.3-0.1-0.5c0-1.5,0-2.9,0-4.4c0-0.9,0.4-1.6,1.2-2.1c2.7-1.7,5.4-3.4,8.1-5.1c0.2-0.1,0.5-0.2,0.7-0.3
		c0.1,0,0.3,0,0.4,0c0.6,0.2,0.9,0.6,1.1,1.2c0.5,1.6,1.1,3.1,1.6,4.7C28.6,22.8,28.6,23,28.6,23.2z M25.8,17.9
		C25.7,18,25.6,18,25.6,18c-2.7,1.7-5.5,3.5-8.2,5.2c-0.4,0.2-0.5,0.6-0.5,1c0,1.4,0,2.9,0,4.3c0,0.2,0.1,0.4,0.2,0.5
		c0.4,0.3,0.8,0.4,1.3,0.1c2.7-1.7,5.5-3.3,8.2-4.9c0.7-0.4,0.9-1,0.6-1.8c-0.3-0.9-0.6-1.9-1-2.8C26.2,19,26,18.5,25.8,17.9z"/>
	<path class="st1" d="M3.8,10.1l9,5.5c1.1,0.7,1.6,1.8,1.5,3.5l0,3.4c-0.2,1.5-2.2,2.3-3.1,1.7l-8.4-5.1C1.7,18.5,1,17.9,1,15.9
		L1,11.1C1,9.5,1.1,9,1.4,8.5C1.8,7.9,3.4,7,3.5,7C3.8,6.8,3,7.6,3.1,8.5C3.2,9.3,3.1,9.3,3.8,10.1z"/>
	<path class="st1" d="M26,22.6l-9-5.5c-1.1-0.7-1.6-1.8-1.5-3.5l0-3.4c0.2-1.5,2.2-2.3,3.1-1.7l8.4,5.1c1.1,0.6,1.7,1.1,1.8,3.2
		l-0.1,4.8c0,1.6-0.1,2.1-0.4,2.6c-0.3,0.6-2,1.5-2.1,1.5c-0.3,0.2,0.5-0.6,0.4-1.5C26.6,23.4,26.7,23.4,26,22.6z"/>
</g>
<g id="Wording_00000023240226112557871410000009791917567659491977_">
	<path class="st0" d="M34.4,21.2l1.7-1.9c1.3,1.3,2.6,2,4,2c0.7,0,1.2-0.1,1.6-0.4c0.4-0.3,0.6-0.7,0.6-1.2c0-0.4-0.1-0.7-0.4-0.9
		c-0.3-0.2-0.8-0.5-1.6-0.8L39,17.4c-1.3-0.5-2.2-1.1-2.8-1.7c-0.6-0.6-0.9-1.4-0.9-2.4c0-1.3,0.5-2.3,1.4-3
		c0.9-0.7,2.1-1.1,3.6-1.1c2,0,3.7,0.7,4.9,2.2l-1.6,1.9c-0.9-1-2-1.5-3.3-1.5c0,0,0,0,0,0c-1.3,0-1.9,0.5-1.9,1.4
		c0,0.3,0.1,0.6,0.4,0.9c0.3,0.2,0.8,0.5,1.5,0.8l1.4,0.5c1.4,0.6,2.4,1.2,3,1.8c0.6,0.6,0.9,1.5,0.9,2.4c0,1.4-0.5,2.4-1.5,3.2
		c-1,0.8-2.2,1.1-3.8,1.1C37.8,24,35.9,23.1,34.4,21.2z"/>
	<path class="st0" d="M48,16.6c0,0,0-0.1,0-0.2c0-2,0.7-3.7,2.1-5.1c1.4-1.4,3.1-2.2,5-2.2c0,0,0.1,0,0.2,0c1.9,0,3.4,0.6,4.7,1.9
		c1.3,1.2,1.9,2.8,1.9,4.6c0,0.6-0.1,1.2-0.2,1.9H51.1c0.2,1.2,0.7,2.1,1.5,2.7c0.8,0.7,1.9,1,3.1,1c1.5,0,2.9-0.6,4.1-1.7l1.5,2.1
		c-1.6,1.5-3.5,2.3-5.7,2.3c-2.2,0-4-0.7-5.4-2.1C48.8,20.4,48,18.7,48,16.6z M51.2,15.2h7.7c0-1.1-0.4-1.9-1.1-2.5
		c-0.7-0.6-1.5-0.9-2.6-0.9c-1,0-1.9,0.3-2.6,0.9C51.9,13.3,51.4,14.1,51.2,15.2z"/>
	<path class="st0" d="M65.7,22.9c-0.9-0.8-1.4-1.8-1.4-3s0.5-2.2,1.4-2.9c0.9-0.7,2.2-1.1,3.8-1.1h4v-0.9c0-1-0.3-1.7-0.8-2.3
		c-0.5-0.5-1.3-0.8-2.2-0.8c-1.4,0-2.8,0.7-3.9,2.1l-1.7-1.8c1.4-2,3.4-3,6-3c1.8,0,3.2,0.5,4.2,1.6c1,1,1.6,2.5,1.6,4.4v8.6h-2.8
		v-1.6c-1.1,1.3-2.6,1.9-4.5,1.9C67.8,24,66.6,23.6,65.7,22.9z M67.4,19.8c0,0.6,0.2,1,0.7,1.4c0.5,0.3,1.1,0.5,1.8,0.5
		c1,0,1.9-0.3,2.6-1c0.7-0.6,1.1-1.4,1.1-2.4V18h-3.6C68.2,18,67.4,18.6,67.4,19.8z"/>
	<path class="st0" d="M79.2,12.1V9.5h2.3V5.8h3.1v3.7h4.2v2.6h-4.2v6.7c0,0.9,0.2,1.5,0.7,1.9c0.5,0.4,1.2,0.6,2.1,0.6
		c0.3,0,1,0,1.9-0.1v2.6c-1,0.2-1.8,0.3-2.5,0.3c-1.7,0-2.9-0.4-3.8-1.2c-0.9-0.8-1.4-2.1-1.4-3.7v-6.9H79.2z"/>
	<path class="st0" d="M92.3,23.7V2h3.1v21.7H92.3z"/>
	<path class="st0" d="M100.1,22.9c-0.9-0.8-1.4-1.8-1.4-3s0.5-2.2,1.4-2.9c0.9-0.7,2.2-1.1,3.8-1.1h4v-0.9c0-1-0.3-1.7-0.8-2.3
		c-0.5-0.5-1.3-0.8-2.2-0.8c-1.4,0-2.8,0.7-3.9,2.1l-1.7-1.8c1.4-2,3.4-3,6-3c1.8,0,3.2,0.5,4.2,1.6c1,1,1.6,2.5,1.6,4.4v8.6h-2.8
		v-1.6c-1.1,1.3-2.6,1.9-4.5,1.9C102.1,24,101,23.6,100.1,22.9z M101.8,19.8c0,0.6,0.2,1,0.7,1.4c0.5,0.3,1.1,0.5,1.8,0.5
		c1,0,1.9-0.3,2.6-1c0.7-0.6,1.1-1.4,1.1-2.4V18h-3.6C102.6,18,101.8,18.6,101.8,19.8z"/>
	<path class="st0" d="M115.2,23.7V2h3.1v9.2c1.1-1.3,2.7-2,4.7-2c2,0,3.7,0.7,5,2.1c1.3,1.4,2,3.2,2,5.3c0,2.1-0.7,3.9-2,5.3
		c-1.3,1.4-3,2.1-5,2.1c-2.2,0-3.9-0.8-5-2.3v1.9H115.2z M118.2,16.6c0,1.5,0.4,2.6,1.2,3.4c0.8,0.8,1.8,1.2,3,1.2
		c1.2,0,2.3-0.4,3.1-1.3c0.8-0.9,1.2-2,1.2-3.4c0-1.4-0.4-2.5-1.2-3.3c-0.8-0.9-1.9-1.3-3.1-1.3c-1.2,0-2.2,0.4-3,1.2
		C118.7,14,118.2,15.1,118.2,16.6z"/>
</g>
</svg>

